<svg xmlns="http://www.w3.org/2000/svg" version="1.0" width="555.000000" height="501.000000" preserveAspectRatio="xMidYMid meet"><rect id="backgroundrect" width="100%" height="100%" x="0" y="0" fill="none" stroke="none"/>
<metadata>
Created by potrace 1.15, written by Peter Selinger 2001-2017
</metadata>

<g class="currentLayer" style=""><title>Layer 1</title><g transform="translate(0,501) scale(0.10000000149011612,-0.10000000149011612) " fill="#00a1ff" stroke="#eb1a1a" id="svg_1" class="selected" fill-opacity="1" stroke-opacity="1">
<path d="M2730 4768 c-140 -18 -216 -32 -320 -58 -67 -16 -245 -72 -280 -87 -19 -9 -51 -22 -70 -30 -53 -23 -244 -116 -250 -123 -9 -9 -64 -41 -82 -47 -10 -3 -18 -9 -18 -14 0 -5 -6 -9 -14 -9 -8 0 -16 -4 -18 -8 -1 -5 -25 -23 -53 -42 -45 -30 -85 -61 -180 -140 -53 -44 -229 -223 -270 -275 -22 -27 -50 -61 -62 -75 -13 -14 -23 -28 -23 -32 0 -3 -6 -13 -13 -20 -13 -13 -83 -119 -125 -188 -26 -44 -125 -241 -150 -300 -58 -135 -119 -355 -148 -535 -21 -129 -30 -472 -14 -603 20 -182 79 -444 120 -537 5 -11 20 -49 34 -85 l26 -65 -53 -45 c-75 -65 -365 -355 -418 -419 -24 -29 -52 -63 -63 -75 -26 -30 -120 -175 -145 -224 -41 -80 -40 -182 2 -225 26 -27 56 -41 119 -57 100 -26 468 12 823 85 69 14 276 65 353 86 17 5 47 13 65 18 112 31 255 78 279 91 10 6 25 10 33 10 8 0 23 4 33 9 18 9 63 28 97 41 23 9 68 28 140 60 108 47 389 192 393 203 2 4 7 7 12 7 19 0 382 235 388 252 2 4 10 8 18 8 8 0 14 5 14 10 0 6 4 10 10 10 9 0 35 19 65 48 8 6 18 12 23 12 6 0 12 3 14 8 2 4 37 32 78 64 139 105 272 219 344 296 136 145 137 147 185 238 33 63 41 87 41 131 0 104 -57 157 -205 192 -61 14 -382 15 -451 2 -27 -5 -71 -12 -99 -16 -97 -11 -269 -46 -390 -80 -33 -9 -85 -23 -115 -32 -30 -8 -68 -18 -85 -23 -16 -5 -59 -16 -95 -25 -36 -9 -81 -20 -100 -25 -35 -9 -97 -23 -175 -40 -22 -5 -71 -14 -110 -20 -38 -6 -95 -15 -125 -20 -200 -33 -410 -36 -550 -11 -30 6 -72 13 -93 17 -20 3 -40 10 -43 15 -3 5 -12 9 -20 9 -18 0 -98 53 -133 88 -13 13 -34 54 -47 90 -20 56 -23 78 -18 132 18 179 111 369 315 647 37 50 77 102 88 115 11 13 30 34 42 48 11 14 38 45 58 70 102 127 338 363 471 470 30 25 69 57 85 72 17 16 36 28 43 28 6 0 12 3 12 8 0 4 25 23 55 42 30 19 55 38 55 43 0 4 7 7 15 7 8 0 15 5 15 10 0 6 6 10 14 10 8 0 16 4 18 8 3 8 93 72 101 72 4 0 55 29 162 93 32 18 326 163 360 177 11 4 40 17 65 28 25 11 72 30 105 42 33 12 69 26 80 30 26 11 129 44 185 60 25 7 55 16 68 21 13 5 34 9 47 9 13 0 26 4 29 9 3 5 20 11 38 14 18 3 51 10 73 16 39 11 91 23 170 41 22 5 58 13 80 18 89 22 142 34 185 42 25 5 68 14 95 20 28 5 75 14 105 20 30 5 80 14 110 20 54 10 117 20 243 40 267 41 272 38 -73 38 -173 0 -344 -4 -380 -8 -36 -5 -119 -11 -185 -15 -128 -6 -236 -17 -325 -34 -156 -29 -227 -43 -300 -61 -25 -6 -63 -15 -85 -19 -106 -22 -508 -152 -612 -197 -61 -26 -108 -46 -128 -54 -24 -9 -141 -63 -210 -97 l-50 -25 30 27 c17 15 39 34 50 44 33 27 203 141 210 141 4 0 19 8 33 18 30 21 111 67 222 124 41 22 79 44 85 49 5 5 17 9 26 9 10 0 19 3 21 8 2 4 28 18 58 32 30 13 68 32 83 41 l29 17 -54 -1 c-29 0 -82 -4 -118 -9z m-1673 -3699 c82 -116 132 -176 238 -287 44 -46 81 -87 83 -91 1 -5 -14 -11 -35 -14 -21 -3 -67 -11 -103 -17 -314 -54 -596 -61 -687 -18 -39 18 -43 23 -43 57 0 23 9 49 23 68 12 17 29 42 37 54 27 41 155 166 248 241 42 34 157 108 164 106 4 -2 37 -46 75 -99z" id="svg_2" fill="#00a1ff" fill-opacity="1" stroke="#eb1a1a" stroke-opacity="1"/>
<path d="M3985 4518 c-298 -104 -477 -179 -690 -288 -404 -208 -697 -418 -955 -687 -213 -221 -320 -414 -308 -557 6 -68 34 -107 96 -134 96 -41 183 -37 452 23 430 95 832 161 1230 202 212 21 702 24 840 4 292 -41 472 -129 541 -262 31 -60 37 -172 14 -259 -34 -133 -173 -358 -335 -545 -253 -291 -740 -726 -1145 -1021 -473 -346 -1053 -637 -1492 -749 -40 -11 -73 -22 -73 -25 0 -12 238 -82 359 -106 223 -44 483 -57 712 -34 975 99 1800 815 2039 1770 53 213 65 313 65 570 0 263 -9 342 -62 560 -141 582 -492 1082 -993 1413 -110 72 -230 138 -252 136 -7 0 -26 -5 -43 -11z" id="svg_3" fill="#00a1ff" fill-opacity="1" stroke="#eb1a1a" stroke-opacity="1"/>
</g></g></svg>